<svg id="Capa_1" enable-background="new 0 0 512 512" height="512" viewBox="0 0 512 512" width="512" xmlns="http://www.w3.org/2000/svg"><g><g><g><g><g><circle cx="256" cy="256" fill="#eaf6ff" r="198"/><g fill="#c4e1ff"><path d="m349.224 400.891c-3.801-14.521-14.086-26.014-28.12-29.289-11.651-2.719-23.497.795-32.813 8.563-7.854-9.005-19.403-14.702-32.29-14.702s-24.436 5.698-32.29 14.702c-9.315-7.768-21.161-11.282-32.813-8.563-14.034 3.275-24.319 14.768-28.121 29.289-.761 2.907-.034 6.021 1.936 8.291 9.841 11.338 24.143 17.096 38.178 13.821 4.152-.969 7.971-2.664 11.396-4.939 4.418 18.958 21.411 33.086 41.714 33.086 20.304 0 37.296-14.128 41.714-33.086 3.424 2.275 7.244 3.97 11.396 4.939 14.035 3.275 28.336-2.483 38.178-13.821 1.968-2.27 2.696-5.384 1.935-8.291z"/><path d="m454.001 256c0 109.354-88.647 198.001-198.001 198.001-28.165 0-54.96-5.882-79.211-16.483 13.598 3.163 27.774 4.832 42.34 4.832 102.915 0 186.349-83.434 186.349-186.349s-83.433-186.35-186.348-186.35c-14.567 0-28.742 1.669-42.34 4.832 24.25-10.601 51.045-16.484 79.21-16.484 109.354 0 198.001 88.647 198.001 198.001z"/></g></g><g><circle cx="256" cy="256.001" fill="#b5dbfd" r="122.653"/><path d="m378.653 256c0 67.745-54.919 122.653-122.653 122.653-11.105 0-21.871-1.473-32.1-4.255 61.656-4.286 110.332-55.661 110.332-118.399s-48.676-114.113-110.332-118.399c10.23-2.781 20.995-4.255 32.1-4.255 67.734.002 122.653 54.921 122.653 122.655z" fill="#8dcafc"/></g></g><g><g><g><path d="m409.896 68.631c6.639 0 12.021 5.382 12.021 12.021v63.692c0 5.734 4.648 10.382 10.382 10.382 5.734 0 10.382-4.648 10.382-10.382v-63.692c0-6.639 5.382-12.021 12.021-12.021h.474c6.639 0 12.021 5.382 12.021 12.021v63.692c0 5.734 4.648 10.382 10.382 10.382s10.382-4.648 10.382-10.382v-63.692c0-6.639 5.382-12.021 12.021-12.021 6.639 0 12.021 5.382 12.021 12.021v84.44c0 25.476-16.697 47.034-39.741 54.366v49.66c0 36.695 4.936 73.107 12.512 109.011.43 2.039.657 4.154.657 6.321v28.43c0 16.838-13.65 30.488-30.488 30.488-16.838 0-30.488-13.65-30.488-30.488v-28.43c0-2.167.226-4.282.657-6.321 7.576-35.905 12.512-72.316 12.512-109.011v-49.698c-23.141-7.5-39.744-29.604-39.744-55.188v-83.58c-.004-6.639 5.378-12.021 12.016-12.021z" fill="#fcc16d"/><path d="m512 80.653v84.444c0 25.466-16.699 47.028-39.744 54.363v49.655c0 36.695 4.935 73.112 12.517 109.014.433 2.04.659 4.152.659 6.325v28.423c0 16.843-13.65 30.493-30.493 30.493-4.265 0-8.324-.876-12.012-2.462 10.858-4.667 18.461-15.463 18.461-28.031v-28.423c0-2.174-.227-4.286-.659-6.325-7.572-35.902-12.506-72.308-12.506-108.993v-58.061c0-4.028 2.318-7.716 5.996-9.354 19.883-8.911 33.738-28.876 33.738-52.076v-68.992c0-6.645 5.388-12.022 12.022-12.022 3.327 0 6.325 1.339 8.499 3.523 2.183 2.174 3.522 5.171 3.522 8.499z" fill="#fca62f"/></g></g><g><path d="m0 148.288c0-43.71 27.566-79.145 61.57-79.145s61.57 35.434 61.57 79.145c0 35.977-18.682 66.328-44.251 75.948v44.37c0 36.695 4.936 73.106 12.512 109.011.43 2.039.657 4.154.657 6.321v28.43c0 16.838-13.65 30.488-30.488 30.488-16.838 0-30.488-13.65-30.488-30.488v-28.43c0-2.167.226-4.282.657-6.321 7.576-35.905 12.512-72.316 12.512-109.011v-44.37c-25.569-9.62-44.251-39.97-44.251-75.948z" fill="#fcc16d"/><path d="m78.891 224.24v44.37c0 36.695 4.935 73.102 12.506 109.003.433 2.04.659 4.162.659 6.325v28.433c0 16.833-13.65 30.483-30.483 30.483-4.45 0-8.684-.958-12.496-2.678 10.601-4.77 17.987-15.422 17.987-27.805v-28.433c0-2.163-.227-4.286-.659-6.325-7.572-35.902-12.506-72.308-12.506-109.003v-50.067c0-3.863 2.174-7.386 5.604-9.158 22.643-11.693 38.642-40.167 38.642-73.462 0-34.614-17.276-58.216-41.362-66.539 1.576-.154 3.183-.237 4.79-.237 33.996 0 61.564 35.428 61.564 79.139.001 35.982-18.677 66.332-44.246 75.954z" fill="#fca62f"/></g></g></g><g fill="#fff1e2"><path d="m256.02 414.472c-.007 0-.013 0-.02 0s-.013 0-.02 0z"/><path d="m255.98 334.935h.02.02z"/></g></g><g><g><g><g><g><g><path d="m309.11 399.23c-15.476-3.611-26.386-17.23-29.078-33.885 9.775-13.746 25.596-21.127 41.072-17.516 14.034 3.275 24.319 14.768 28.121 29.289.761 2.907.034 6.021-1.936 8.291-9.843 11.338-24.144 17.095-38.179 13.821z" fill="#1ca559"/></g><g><path d="m327.546 351.336c-7.497 14.012-23.477 21.022-40.261 19.308-10.744-13.002-13.775-30.196-6.278-44.207 6.799-12.707 20.564-19.663 35.574-19.573 3.005.018 5.824 1.527 7.506 4.018 8.401 12.441 10.258 27.746 3.459 40.454z" fill="#4dcb8f"/><path d="m287.278 378.371c-1.23 0-2.478-.294-3.638-.915-3.763-2.013-5.181-6.695-3.168-10.457l19.914-37.22c2.013-3.763 6.695-5.182 10.457-3.168 3.763 2.013 5.181 6.695 3.168 10.457l-19.914 37.22c-1.392 2.602-4.061 4.083-6.819 4.083z" fill="#1ca559"/></g></g></g><g><g><g><path d="m202.89 399.23c15.476-3.611 26.386-17.23 29.078-33.885-9.775-13.746-25.596-21.127-41.072-17.516-14.034 3.275-24.319 14.768-28.121 29.289-.761 2.907-.034 6.021 1.936 8.291 9.843 11.338 24.144 17.095 38.179 13.821z" fill="#1ca559"/></g><g><path d="m184.454 351.336c7.497 14.012 23.477 21.022 40.261 19.308 10.744-13.002 13.775-30.196 6.278-44.207-6.799-12.707-20.564-19.663-35.574-19.573-3.005.018-5.824 1.527-7.506 4.018-8.401 12.441-10.258 27.746-3.459 40.454z" fill="#4dcb8f"/><path d="m224.722 378.371c-2.759 0-5.427-1.48-6.819-4.083l-19.914-37.22c-2.013-3.763-.595-8.444 3.167-10.457 3.762-2.014 8.444-.595 10.457 3.168l19.914 37.22c2.013 3.763.595 8.444-3.167 10.457-1.16.62-2.408.915-3.638.915z" fill="#1ca559"/></g></g></g></g><circle cx="256" cy="384.533" fill="#fb3a82" r="42.844"/><path d="m298.848 384.532c0 23.663-19.186 42.848-42.848 42.848-14.184 0-26.764-6.89-34.571-17.515 5.088 2.719 10.898 4.259 17.067 4.259 20.005 0 36.22-16.215 36.22-36.22 0-17.111-11.88-31.459-27.845-35.237 2.937-.633 5.995-.972 9.129-.972 23.663 0 42.848 19.174 42.848 42.837z" fill="#fb1466"/><g><path d="m256 367.726c9.546 0 17.233 7.958 16.789 17.601-.394 8.559-7.436 15.602-15.995 15.995-9.643.444-17.601-7.243-17.601-16.789h3.144c7.546 0 13.664-6.118 13.664-13.664v-3.143z" fill="#cf0e50"/></g><g><path d="m256 409.067c-13.528 0-24.534-11.006-24.534-24.534 0-4.267 3.459-7.726 7.726-7.726s7.726 3.459 7.726 7.726c0 5.008 4.074 9.081 9.081 9.081s9.081-4.074 9.081-9.081-4.074-9.081-9.081-9.081c-4.267 0-7.726-3.459-7.726-7.726s3.459-7.726 7.726-7.726c13.528 0 24.534 11.006 24.534 24.534s-11.005 24.533-24.533 24.533z" fill="#fc5a95"/></g></g></g></g></svg>