<svg id="Capa_1" enable-background="new 0 0 512 512" height="512" viewBox="0 0 512 512" width="512" xmlns="http://www.w3.org/2000/svg"><g><g><g><path d="m429.729 512h-363.113c-6.174 0-11.179-5.005-11.179-11.179v-489.642c0-6.174 5.005-11.179 11.179-11.179h363.113c6.174 0 11.179 5.005 11.179 11.179v489.642c0 6.174-5.005 11.179-11.179 11.179z" fill="#b55434"/><path d="m440.908 11.18v489.64c0 6.18-5 11.18-11.18 11.18h-363.11c-6.18 0-11.18-5-11.18-11.18v-38.68c64.54-82.19 103.02-185.8 103.02-298.41 0-57.47-10.02-112.6-28.43-163.73h299.7c6.18 0 11.18 5 11.18 11.18z" fill="#a1412b"/><path d="m488.444 512h-363.113c-6.174 0-11.179-5.005-11.179-11.179v-489.642c.001-6.174 5.006-11.179 11.179-11.179h363.113c6.174 0 11.179 5.005 11.179 11.179v489.642c0 6.174-5.005 11.179-11.179 11.179z" fill="#db765a"/><path d="m499.628 274.83v225.99c0 6.18-5.01 11.18-11.18 11.18h-101.04c59.22-64.34 99.55-146.33 112.22-237.17z" fill="#b55434"/><path d="m133.713 426.703c10.805 0 19.565-8.76 19.565-19.565v-358.008c0-5.53 4.48-10 10-10h147.107c10.805 0 19.565-8.76 19.565-19.565 0-10.805-8.76-19.565-19.565-19.565h-185.057c-6.17 0-11.18 5-11.18 11.18v395.958c0 10.805 8.759 19.565 19.565 19.565z" fill="#f2886b"/><path d="m153.278 191.738v-106.802c0-10.805-8.76-19.565-19.565-19.565-10.805 0-19.565 8.76-19.565 19.565v106.803c0 10.805 8.76 19.565 19.565 19.565 10.805-.001 19.565-8.76 19.565-19.566z" fill="#f79a7c"/><path d="m153.279 462.874v-413.748c0-5.523 4.477-10 10-10h287.219c5.523 0 10 4.477 10 10v413.748c0 5.523-4.477 10-10 10h-287.219c-5.523 0-10-4.477-10-10z" fill="#595751"/><path d="m460.498 49.13v413.74c0 5.53-4.48 10-10 10h-205.98c116.06-72.54 193.25-201.45 193.25-348.39 0-29.27-3.06-57.82-8.89-85.35h21.62c5.52 0 10 4.47 10 10z" fill="#44433f"/><path d="m473.527 110.07v-78.974c0-2.761-2.239-5-5-5h-78.763c-4.451 0-6.684 5.379-3.54 8.531l78.763 78.973c3.148 3.157 8.54.927 8.54-3.53z" fill="#fcad97"/></g><g><g><g><path d="m55.437 186.09h-10.06c-17.585 0-32.468-13.762-32.99-31.339-.542-18.264 14.158-33.295 32.302-33.295h80.77c6.174 0 11.179 5.005 11.179 11.179 0 6.174-5.005 11.179-11.179 11.179h-80.419c-5.299 0-9.934 3.99-10.288 9.277-.388 5.799 4.219 10.641 9.936 10.641h10.748v22.358z" fill="#b5b1a4"/></g><g><path d="m55.437 228.363h-10.06c-17.585 0-32.468-13.762-32.99-31.339-.542-18.264 14.158-33.295 32.302-33.295h80.77c6.174 0 11.179 5.005 11.179 11.179 0 6.174-5.005 11.179-11.179 11.179h-80.419c-5.299 0-9.934 3.99-10.288 9.277-.388 5.799 4.219 10.641 9.936 10.641h10.748v22.358z" fill="#d8d4c9"/></g></g><g><g><path d="m55.437 348.271h-10.06c-17.585 0-32.468-13.762-32.99-31.339-.542-18.264 14.158-33.295 32.302-33.295h80.77c6.174 0 11.179 5.005 11.179 11.179 0 6.174-5.005 11.179-11.179 11.179h-80.419c-5.299 0-9.934 3.99-10.288 9.277-.388 5.799 4.219 10.641 9.936 10.641h10.748v22.358z" fill="#b5b1a4"/></g><g><path d="m55.437 390.544h-10.06c-17.585 0-32.468-13.762-32.99-31.339-.542-18.264 14.158-33.295 32.302-33.295h80.77c6.174 0 11.179 5.005 11.179 11.179 0 6.174-5.005 11.179-11.179 11.179h-80.419c-5.299 0-9.934 3.99-10.288 9.277-.388 5.799 4.219 10.641 9.936 10.641h10.748v22.358z" fill="#d8d4c9"/></g></g></g></g><g><g><g><path d="m102.288 121.456h-26.931c-6.174 0-11.179 5.005-11.179 11.179 0 6.174 5.005 11.179 11.179 11.179h26.931c6.174 0 11.179-5.005 11.179-11.179 0-6.174-5.005-11.179-11.179-11.179z" fill="#d8d4c9"/></g><g><path d="m76.194 163.729h-26.931c-6.174 0-11.179 5.005-11.179 11.179 0 6.174 5.005 11.179 11.179 11.179h26.931c6.174 0 11.179-5.005 11.179-11.179 0-6.174-5.005-11.179-11.179-11.179z" fill="#e8e4d8"/></g></g><g><g><path d="m102.288 283.637h-26.931c-6.174 0-11.179 5.005-11.179 11.179 0 6.174 5.005 11.179 11.179 11.179h26.931c6.174 0 11.179-5.005 11.179-11.179 0-6.174-5.005-11.179-11.179-11.179z" fill="#d8d4c9"/></g><g><path d="m84.892 325.91h-26.931c-6.174 0-11.179 5.005-11.179 11.179 0 6.174 5.005 11.179 11.179 11.179h26.931c6.174 0 11.179-5.005 11.179-11.179 0-6.174-5.005-11.179-11.179-11.179z" fill="#e8e4d8"/></g></g></g><path d="m187.4 393.96v-148.536c0-9.422-7.638-17.061-17.061-17.061-9.422 0-17.061 7.638-17.061 17.061v148.536c0 9.422 7.638 17.061 17.061 17.061 9.422 0 17.061-7.639 17.061-17.061z" fill="#706c64"/><circle cx="170.339" cy="188.771" fill="#706c64" r="17.061"/><g><g><path d="m233.807 187.346h160.948c0 20.158-16.341 36.498-36.498 36.498h-87.951c-20.158 0-36.499-16.341-36.499-36.498z" fill="#ffc751"/><path d="m233.807 187.346c0 5.905 1.411 11.477 3.901 16.412h118.103c-13.761 10.319-30.095 17.394-47.872 20.086h50.315c10.079 0 19.205-4.086 25.812-10.685 6.606-6.606 10.693-15.732 10.693-25.812z" fill="#ffaf40"/><g><path d="m237.781 165.421h153c7.446 0 13.483 6.036 13.483 13.483 0 7.446-6.036 13.483-13.483 13.483h-153c-7.446 0-13.483-6.036-13.483-13.483 0-7.446 6.037-13.483 13.483-13.483z" fill="#ffe059"/><path d="m390.781 165.421h-24.679v26.966h24.679c7.446 0 13.483-6.036 13.483-13.483 0-7.446-6.037-13.483-13.483-13.483z" fill="#ffc751"/><path d="m235.296 164.05c.705 15.768 13.708 28.337 29.65 28.337 7.448 0 14.252-2.746 19.46-7.278 2.993-2.604 7.421-2.604 10.414 0 5.209 4.533 12.012 7.278 19.46 7.278s14.252-2.746 19.46-7.278c2.993-2.604 7.421-2.604 10.414 0 5.209 4.533 12.012 7.278 19.46 7.278 15.942 0 28.945-12.568 29.65-28.337z" fill="#29e088"/><path d="m393.269 164.05c-.709 15.769-13.715 28.339-29.654 28.339-5.801 0-11.217-1.67-15.784-4.559 12.111-3.429 21.947-12.289 26.706-23.779h18.732z" fill="#0cc166"/></g><path d="m394.755 148.666h-160.948c0-20.158 16.341-36.498 36.498-36.498h87.951c20.158 0 36.499 16.341 36.499 36.498z" fill="#ffc751"/><path d="m283.394 122.702c0 5.818 4.716 10.534 10.534 10.534h40.707c5.818 0 10.534-4.716 10.534-10.534 0-5.818-4.716-10.534-10.534-10.534h-40.707c-5.818 0-10.534 4.716-10.534 10.534z" fill="#ffe059"/><path d="m394.757 148.667h-47.559c13.102-6.54 23.048-18.459 26.942-32.868 12.201 5.904 20.617 18.4 20.617 32.868z" fill="#ffaf40"/></g><path d="m237.781 147.239h153c7.446 0 13.483 6.036 13.483 13.483 0 7.446-6.036 13.483-13.483 13.483h-153c-7.446 0-13.483-6.036-13.483-13.483 0-7.447 6.037-13.483 13.483-13.483z" fill="#fe255f"/><path d="m294.402 147.239h-56.24c-7.26 0-13.507 5.579-13.848 12.831-.365 7.743 5.805 14.135 13.467 14.135h56.621c7.446 0 13.483-6.036 13.483-13.483 0-7.447-6.037-13.483-13.483-13.483z" fill="#fc709b"/><path d="m404.267 160.723c0 3.724-1.508 7.094-3.953 9.532-2.438 2.439-5.808 3.946-9.532 3.946h-47.729c13.73-5.224 25.324-14.764 33.142-26.964h14.587c7.448 0 13.485 6.037 13.485 13.486z" fill="#e01152"/></g><path d="m460.498 273.67v189.2c0 5.53-4.48 10-10 10h-287.22c-5.52 0-10-4.47-10-10v-189.2z" fill="#ffc751"/><path d="m187.398 273.67v120.29c0 4.71-1.91 8.98-5 12.06-3.08 3.09-7.35 5-12.06 5-9.42 0-17.06-7.64-17.06-17.06v-120.29z" fill="#ffe059"/><path d="m409.817 273.67c-32.335 82.863-90.809 152.643-165.299 199.2h205.98c5.52 0 10-4.47 10-10v-189.2z" fill="#ffaf40"/><circle cx="229.458" cy="112.168" fill="#ffe059" r="41.76"/><circle cx="221.333" cy="104.912" fill="#fff370" r="30.896"/><path d="m426.932 252.167h-18.706c-4.948 0-8.959-4.011-8.959-8.959 0-4.948 4.011-8.959 8.959-8.959h18.706c4.948 0 8.959 4.011 8.959 8.959 0 4.948-4.011 8.959-8.959 8.959z" fill="#e8e4d8"/><g><g fill="#e8e4d8"><path d="m211.899 328.651h-18.706c-4.948 0-8.959-4.011-8.959-8.959 0-4.948 4.011-8.959 8.959-8.959h18.706c4.948 0 8.959 4.011 8.959 8.959 0 4.948-4.011 8.959-8.959 8.959z"/><path d="m266.899 357.23h-73.706c-4.948 0-8.959-4.011-8.959-8.959 0-4.948 4.011-8.959 8.959-8.959h73.706c4.948 0 8.959 4.011 8.959 8.959 0 4.948-4.011 8.959-8.959 8.959z"/></g><g><g><path d="m211.899 398.124h-18.706c-4.948 0-8.959-4.011-8.959-8.959 0-4.948 4.011-8.959 8.959-8.959h18.706c4.948 0 8.959 4.011 8.959 8.959 0 4.948-4.011 8.959-8.959 8.959z" fill="#e8e4d8"/><path d="m266.899 426.703h-73.706c-4.948 0-8.959-4.011-8.959-8.959 0-4.948 4.011-8.959 8.959-8.959h73.706c4.948 0 8.959 4.011 8.959 8.959 0 4.948-4.011 8.959-8.959 8.959z" fill="#e8e4d8"/><g fill="#f1eee0"><path d="m251.899 357.23h-23.706c-4.948 0-8.959-4.011-8.959-8.959 0-4.948 4.011-8.959 8.959-8.959h23.706c4.948 0 8.959 4.011 8.959 8.959 0 4.948-4.011 8.959-8.959 8.959z"/><path d="m238.902 426.703h-33.706c-4.948 0-8.959-4.011-8.959-8.959 0-4.948 4.011-8.959 8.959-8.959h33.706c4.948 0 8.959 4.011 8.959 8.959-.001 4.948-4.011 8.959-8.959 8.959z"/></g></g><g><path d="m356.036 328.651h-18.706c-4.948 0-8.959-4.011-8.959-8.959 0-4.948 4.011-8.959 8.959-8.959h18.706c4.948 0 8.959 4.011 8.959 8.959 0 4.948-4.011 8.959-8.959 8.959z" fill="#e8e4d8"/><path d="m411.036 357.23h-73.706c-4.948 0-8.959-4.011-8.959-8.959 0-4.948 4.011-8.959 8.959-8.959h73.706c4.948 0 8.959 4.011 8.959 8.959 0 4.948-4.011 8.959-8.959 8.959z" fill="#e8e4d8"/><path d="m375.112 339.312h-21.706c-4.948 0-8.959 4.011-8.959 8.959 0 4.948 4.011 8.959 8.959 8.959h21.706c4.948 0 8.959-4.011 8.959-8.959-.001-4.948-4.012-8.959-8.959-8.959z" fill="#f1eee0"/></g><g><path d="m356.036 398.124h-18.706c-4.948 0-8.959-4.011-8.959-8.959 0-4.948 4.011-8.959 8.959-8.959h18.706c4.948 0 8.959 4.011 8.959 8.959 0 4.948-4.011 8.959-8.959 8.959z" fill="#e8e4d8"/><path d="m411.036 426.703h-73.706c-4.948 0-8.959-4.011-8.959-8.959 0-4.948 4.011-8.959 8.959-8.959h73.706c4.948 0 8.959 4.011 8.959 8.959 0 4.948-4.011 8.959-8.959 8.959z" fill="#e8e4d8"/><path d="m385.984 408.785h-28.23c-4.948 0-8.959 4.011-8.959 8.959 0 4.948 4.011 8.959 8.959 8.959h28.23c4.948 0 8.959-4.011 8.959-8.959 0-4.948-4.011-8.959-8.959-8.959z" fill="#f1eee0"/></g></g></g></g></svg>